{
    "asset" : {
        "generator" : "Khronos glTF Blender I/O v3.3.32",
        "version" : "2.0"
    },
    "scene" : 0,
    "scenes" : [
        {
            "name" : "Scene",
            "nodes" : [
                0
            ]
        }
    ],
    "nodes" : [
        {
            "mesh" : 0,
            "name" : "Cube",
            "rotation" : [
                0,
                0.3826834559440613,
                0,
                0.9238795638084412
            ],
            "scale" : [
                0.32853561639785767,
                0.0118032805621624,
                0.32853561639785767
            ]
        }
    ],
    "materials" : [
        {
            "doubleSided" : true,
            "name" : "CrossRed",
            "pbrMetallicRoughness" : {
                "baseColorFactor" : [
                    0.8000000715255737,
                    0.01591392047703266,
                    0.01591392047703266,
                    1
                ],
                "metallicFactor" : 0,
                "roughnessFactor" : 0.5
            }
        }
    ],
    "meshes" : [
        {
            "name" : "Cube.001",
            "primitives" : [
                {
                    "attributes" : {
                        "POSITION" : 0,
                        "NORMAL" : 1,
                        "TEXCOORD_0" : 2
                    },
                    "indices" : 3,
                    "material" : 0
                }
            ]
        }
    ],
    "accessors" : [
        {
            "bufferView" : 0,
            "componentType" : 5126,
            "count" : 80,
            "max" : [
                11.000000953674316,
                1,
                11.000000953674316
            ],
            "min" : [
                -11.000000953674316,
                -1,
                -11.000000953674316
            ],
            "type" : "VEC3"
        },
        {
            "bufferView" : 1,
            "componentType" : 5126,
            "count" : 80,
            "type" : "VEC3"
        },
        {
            "bufferView" : 2,
            "componentType" : 5126,
            "count" : 80,
            "type" : "VEC2"
        },
        {
            "bufferView" : 3,
            "componentType" : 5123,
            "count" : 156,
            "type" : "SCALAR"
        }
    ],
    "bufferViews" : [
        {
            "buffer" : 0,
            "byteLength" : 960,
            "byteOffset" : 0,
            "target" : 34962
        },
        {
            "buffer" : 0,
            "byteLength" : 960,
            "byteOffset" : 960,
            "target" : 34962
        },
        {
            "buffer" : 0,
            "byteLength" : 640,
            "byteOffset" : 1920,
            "target" : 34962
        },
        {
            "buffer" : 0,
            "byteLength" : 312,
            "byteOffset" : 2560,
            "target" : 34963
        }
    ],
    "buffers" : [
        {
            "byteLength" : 2872,
            "uri" : "data:application/octet-stream;base64,"
        }
    ]
}
