{
    "asset" : {
        "generator" : "Khronos glTF Blender I/O v3.3.32",
        "version" : "2.0"
    },
    "extensionsUsed" : [
        "KHR_materials_specular",
        "KHR_materials_ior"
    ],
    "scene" : 0,
    "scenes" : [
        {
            "name" : "Scene",
            "nodes" : [
                0,
                1,
                2,
                3
            ]
        }
    ],
    "nodes" : [
        {
            "mesh" : 0,
            "name" : "Cube"
        },
        {
            "mesh" : 1,
            "name" : "Icosphere",
            "scale" : [
                4.10208797454834,
                4.10208797454834,
                4.10208797454834
            ],
            "translation" : [
                0,
                14.836641311645508,
                0
            ]
        },
        {
            "mesh" : 2,
            "name" : "Icosphere.001",
            "scale" : [
                2.579897165298462,
                2.579897165298462,
                2.579897165298462
            ],
            "translation" : [
                -0.06015762686729431,
                11.730875968933105,
                7.022539138793945
            ]
        },
        {
            "mesh" : 3,
            "name" : "Icosphere.002",
            "scale" : [
                1.4031596183776855,
                1.4031596183776855,
                1.4031596183776855
            ],
            "translation" : [
                -0.010143458843231201,
                8.023791313171387,
                -4.254288673400879
            ]
        }
    ],
    "materials" : [
        {
            "doubleSided" : true,
            "extensions" : {
                "KHR_materials_specular" : {
                    "specularColorFactor" : [
                        0,
                        0,
                        0
                    ]
                },
                "KHR_materials_ior" : {
                    "ior" : 1.0499999523162842
                }
            },
            "name" : "Bark",
            "pbrMetallicRoughness" : {
                "baseColorFactor" : [
                    0.2956903874874115,
                    0.12027382850646973,
                    0.0757836326956749,
                    1
                ],
                "metallicFactor" : 0.16535434126853943
            }
        },
        {
            "doubleSided" : true,
            "name" : "Leaves",
            "pbrMetallicRoughness" : {
                "baseColorFactor" : [
                    0.0030248286202549934,
                    0.41093695163726807,
                    0.013196172192692757,
                    1
                ],
                "metallicFactor" : 0,
                "roughnessFactor" : 0.5
            }
        }
    ],
    "meshes" : [
        {
            "name" : "Cube",
            "primitives" : [
                {
                    "attributes" : {
                        "POSITION" : 0,
                        "NORMAL" : 1,
                        "TEXCOORD_0" : 2
                    },
                    "indices" : 3,
                    "material" : 0
                }
            ]
        },
        {
            "name" : "Icosphere",
            "primitives" : [
                {
                    "attributes" : {
                        "POSITION" : 4,
                        "NORMAL" : 5,
                        "TEXCOORD_0" : 6
                    },
                    "indices" : 7,
                    "material" : 1
                }
            ]
        },
        {
            "name" : "Icosphere.001",
            "primitives" : [
                {
                    "attributes" : {
                        "POSITION" : 8,
                        "NORMAL" : 9,
                        "TEXCOORD_0" : 10
                    },
                    "indices" : 11,
                    "material" : 1
                }
            ]
        },
        {
            "name" : "Icosphere.002",
            "primitives" : [
                {
                    "attributes" : {
                        "POSITION" : 12,
                        "NORMAL" : 13,
                        "TEXCOORD_0" : 14
                    },
                    "indices" : 15,
                    "material" : 1
                }
            ]
        }
    ],
    "accessors" : [
        {
            "bufferView" : 0,
            "componentType" : 5126,
            "count" : 2605,
            "max" : [
                1,
                12.615687370300293,
                6.68679666519165
            ],
            "min" : [
                -1,
                -1,
                -3.4021658897399902
            ],
            "type" : "VEC3"
        },
        {
            "bufferView" : 1,
            "componentType" : 5126,
            "count" : 2605,
            "type" : "VEC3"
        },
        {
            "bufferView" : 2,
            "componentType" : 5126,
            "count" : 2605,
            "type" : "VEC2"
        },
        {
            "bufferView" : 3,
            "componentType" : 5123,
            "count" : 4416,
            "type" : "SCALAR"
        },
        {
            "bufferView" : 4,
            "componentType" : 5126,
            "count" : 960,
            "max" : [
                1.042367696762085,
                1.0349935293197632,
                1.0699207782745361
            ],
            "min" : [
                -1.1105421781539917,
                -1.0400663614273071,
                -1.1356804370880127
            ],
            "type" : "VEC3"
        },
        {
            "bufferView" : 5,
            "componentType" : 5126,
            "count" : 960,
            "type" : "VEC3"
        },
        {
            "bufferView" : 6,
            "componentType" : 5126,
            "count" : 960,
            "type" : "VEC2"
        },
        {
            "bufferView" : 7,
            "componentType" : 5123,
            "count" : 960,
            "type" : "SCALAR"
        },
        {
            "bufferView" : 8,
            "componentType" : 5126,
            "count" : 960,
            "max" : [
                0.8642522096633911,
                0.8593609929084778,
                0.8794523477554321
            ],
            "min" : [
                -0.9153551459312439,
                -0.8548449277877808,
                -0.9367997646331787
            ],
            "type" : "VEC3"
        },
        {
            "bufferView" : 9,
            "componentType" : 5126,
            "count" : 960,
            "type" : "VEC3"
        },
        {
            "bufferView" : 10,
            "componentType" : 5126,
            "count" : 960,
            "type" : "VEC2"
        },
        {
            "bufferView" : 11,
            "componentType" : 5123,
            "count" : 960,
            "type" : "SCALAR"
        },
        {
            "bufferView" : 12,
            "componentType" : 5126,
            "count" : 960,
            "max" : [
                1.1113150119781494,
                1.163265347480774,
                1.163265347480774
            ],
            "min" : [
                -1.171007752418518,
                -1.163265347480774,
                -1.1868739128112793
            ],
            "type" : "VEC3"
        },
        {
            "bufferView" : 13,
            "componentType" : 5126,
            "count" : 960,
            "type" : "VEC3"
        },
        {
            "bufferView" : 14,
            "componentType" : 5126,
            "count" : 960,
            "type" : "VEC2"
        },
        {
            "bufferView" : 15,
            "componentType" : 5123,
            "count" : 960,
            "type" : "SCALAR"
        }
    ],
    "bufferViews" : [
        {
            "buffer" : 0,
            "byteLength" : 31260,
            "byteOffset" : 0,
            "target" : 34962
        },
        {
            "buffer" : 0,
            "byteLength" : 31260,
            "byteOffset" : 31260,
            "target" : 34962
        },
        {
            "buffer" : 0,
            "byteLength" : 20840,
            "byteOffset" : 62520,
            "target" : 34962
        },
        {
            "buffer" : 0,
            "byteLength" : 8832,
            "byteOffset" : 83360,
            "target" : 34963
        },
        {
            "buffer" : 0,
            "byteLength" : 11520,
            "byteOffset" : 92192,
            "target" : 34962
        },
        {
            "buffer" : 0,
            "byteLength" : 11520,
            "byteOffset" : 103712,
            "target" : 34962
        },
        {
            "buffer" : 0,
            "byteLength" : 7680,
            "byteOffset" : 115232,
            "target" : 34962
        },
        {
            "buffer" : 0,
            "byteLength" : 1920,
            "byteOffset" : 122912,
            "target" : 34963
        },
        {
            "buffer" : 0,
            "byteLength" : 11520,
            "byteOffset" : 124832,
            "target" : 34962
        },
        {
            "buffer" : 0,
            "byteLength" : 11520,
            "byteOffset" : 136352,
            "target" : 34962
        },
        {
            "buffer" : 0,
            "byteLength" : 7680,
            "byteOffset" : 147872,
            "target" : 34962
        },
        {
            "buffer" : 0,
            "byteLength" : 1920,
            "byteOffset" : 155552,
            "target" : 34963
        },
        {
            "buffer" : 0,
            "byteLength" : 11520,
            "byteOffset" : 157472,
            "target" : 34962
        },
        {
            "buffer" : 0,
            "byteLength" : 11520,
            "byteOffset" : 168992,
            "target" : 34962
        },
        {
            "buffer" : 0,
            "byteLength" : 7680,
            "byteOffset" : 180512,
            "target" : 34962
        },
        {
            "buffer" : 0,
            "byteLength" : 1920,
            "byteOffset" : 188192,
            "target" : 34963
        }
    ],
    "buffers" : [
        {
            "byteLength" : 190112,
            "uri" : "data:application/octet-stream;base64,"
        }
    ]
}
